<?xml version="1.0"?><svg enable-background="new 0 0 128 128" id="Слой_1" version="1.1" viewBox="0 0 128 128" xml:space="preserve" xmlns="http://www.w3.org/2000/svg" xmlns:xlink="http://www.w3.org/1999/xlink"><g id="paper_5_"><rect fill="#03A9F4" height="96" id="color" width="90" x="16" y="17"/><g id="grid"><g><rect fill="#E0E0E0" height="1" width="79" x="21.5" y="44"/><rect fill="#E0E0E0" height="1" width="79" x="21.5" y="65"/><rect fill="#E0E0E0" height="1" width="79" x="21.5" y="85"/></g><g><rect fill="#E0E0E0" height="84" width="1" x="41" y="23"/><rect fill="#E0E0E0" height="84" width="1" x="60" y="23"/><rect fill="#E0E0E0" height="84" width="1" x="79" y="23"/></g><path d="M101,108H21V22h80V108z M23,106h76V24H23V106z" fill="#E0E0E0"/></g></g><g id="rod_r"><path d="M77.3,109.9L75.4,120c-0.1,0.4,0.5,0.6,0.7,0.2l4.4-9.3L77.3,109.9z" fill="#E8E8EF"/><polygon fill="#E0E0E0" points="90,67.7 98.6,70.6 91.5,92.1 85.1,82.6  "/><rect fill="#E0E0E0" height="9.1" transform="matrix(0.3161 -0.9487 0.9487 0.3161 16.4741 131.2963)" width="31.5" x="83.5" y="49.7"/><polygon fill="#E0E0E0" points="91.5,92.1 89,99.7 82.7,111.7 76.1,109.5 85.1,82.6  "/><g><ellipse cx="91.4" cy="78.2" fill="#CFD8DC" rx="2.9" ry="2.9" transform="matrix(0.4226 -0.9063 0.9063 0.4226 -18.1153 128.0402)"/><rect fill="#263238" height="5.8" transform="matrix(0.7771 -0.6294 0.6294 0.7771 -28.8605 74.9862)" width="1.2" x="90.8" y="75.3"/></g></g><g id="wheel_3_"><rect fill="#757575" height="2.5" transform="matrix(0.316 -0.9488 0.9488 0.316 10.504 141.8067)" width="3.3" x="101.9" y="62.4"/><rect fill="#757575" height="2.5" transform="matrix(0.316 -0.9488 0.9488 0.316 10.0699 140.419)" width="6.8" x="99" y="62"/><rect fill="#CFD8DC" height="2.5" transform="matrix(0.316 -0.9488 0.9488 0.316 11.3722 144.5829)" width="14.5" x="98.7" y="63.2"/></g><g id="wheel_2_"><ellipse cx="87.7" cy="98.5" fill="#3F51B5" rx="5.4" ry="5.4" transform="matrix(0.4226 -0.9063 0.9063 0.4226 -38.6398 136.3659)"/><ellipse cx="87.7" cy="98.5" fill="#FFFFFF" rx="1.2" ry="1.2" transform="matrix(0.4226 -0.9063 0.9063 0.4226 -38.6406 136.3632)"/></g><g id="rod_l"><path d="M49,105.5l-0.4,2.3c-0.2,0.9,0.8,1.5,1.6,1l1.9-1.4c0.7-0.5,1.3-1.2,1.8-1.9l3.1-5l-3.9-2.4l-3.1,4.9   C49.5,103.8,49.2,104.7,49,105.5z" fill="#263238"/><polygon fill="#E0E0E0" points="68.2,79.2 64.7,77 64.7,77 62.3,75.5 56.7,84.7 51.6,97.2 57.5,100.9 70.1,80.3 68.2,79.2  "/><polygon fill="#757575" points="75.9,66.6 72.4,64.5 65.2,76.1 62.9,74.7 62.3,75.5 70.1,80.3 70.6,79.5 68.7,78.3  "/><polygon fill="#E0E0E0" points="79.4,59 77.3,57.7 65.8,76.5 62.9,74.7 74.7,55.5 86.1,54.3 70.6,79.5 67.9,77.8  "/><polygon fill="#E0E0E0" points="89.3,31.7 97.1,36.5 86.1,54.3 74.7,55.5  "/></g><g id="wheel_1_"><rect fill="#757575" height="2.5" transform="matrix(0.5237 -0.8519 0.8519 0.5237 -23.556 88.3383)" width="6.8" x="63.8" y="64"/><path d="M75.3,72.1L75.3,72.1l1.6-2.9l0.1,0.1c0.8,0.5,1,1.5,0.5,2.3l0,0C77.1,72.4,76.1,72.6,75.3,72.1z" fill="#757575"/><rect fill="#CFD8DC" height="2.5" transform="matrix(0.5237 -0.8519 0.8519 0.5237 -23.4569 85.909)" width="14.5" x="57.9" y="62.7"/></g><g id="wheel"><ellipse cx="58.3" cy="84.8" fill="#3F51B5" rx="5.4" ry="5.4" transform="matrix(0.4226 -0.9063 0.9063 0.4226 -43.1913 101.7931)"/><ellipse cx="58.3" cy="84.8" fill="#FFFFFF" rx="1.2" ry="1.2" transform="matrix(0.4226 -0.9063 0.9063 0.4226 -43.1912 101.7935)"/></g><g id="fasteners"><g><path d="M113.8,15.9l-8.6-4C109.4,10.4,112.2,11.9,113.8,15.9z" fill="#5C6BC0"/><rect fill="#5C6BC0" height="12.4" transform="matrix(0.4226 -0.9063 0.9063 0.4226 32.6159 109.4895)" width="3.5" x="100.5" y="22.9"/><polygon fill="#283593" points="113.8,15.9 108.6,30.2 97.3,24.9 105.2,11.9 109.4,13.8   "/></g><path d="M102,29.7c6.4,3,11.1,6.7,10.3,8.2l-2.4,5.1l-9.4,11.4L99.4,57c-0.6,1.2-4.8,0.5-9.4-1.6   c-4.6-2.1-7.8-4.9-7.3-6.1l1.2-2.5l2.7-14.5l2.4-5.1C89.8,25.5,95.6,26.7,102,29.7z" fill="#3F51B5"/><g><ellipse cx="104.1" cy="39.7" fill="#CFD8DC" rx="3.3" ry="3.3" transform="matrix(0.2077 -0.9782 0.9782 0.2077 43.5766 133.2879)"/><polygon fill="#263238" points="102.2,38.7 103.6,39 103.9,37.6 105.1,37.8 104.8,39.3 106.2,39.6 106,40.8 104.5,40.5     104.2,41.9 103,41.6 103.3,40.2 101.9,39.9   "/></g><g><ellipse cx="93.2" cy="34.7" fill="#CFD8DC" rx="3.3" ry="3.3" transform="matrix(0.9817 -0.1904 0.1904 0.9817 -4.8955 18.3715)"/><polygon fill="#263238" points="91,34.5 92.4,34.2 92.2,32.7 93.4,32.5 93.7,33.9 95.1,33.7 95.3,34.9 93.9,35.2 94.2,36.6     93,36.8 92.7,35.4 91.3,35.7   "/></g></g></svg>